# xmcd
#
# Track frame offsets:
# 150
# 12750
# 26363
# 39998
# 52378
# 66168
# 82453
# 96455
# 110563
# 124435
# 137658
# 151485
# 164153
# 178095
# 193158
# 207670
# 222658
# 236458
#
# Disc length: 3334 seconds
#
#
# Revision: 0
# Processed by: cddbd v1.5.2PL0 Copyright (c) Steve Scherf et al.
# Submitted via: FreeRIP 2.951 
#
DISCID=1f0d0412
DTITLE=신수인 - 중년신사
DYEAR=1990
DGENRE=Other
TTITLE0=돌아가는 삼각지
TTITLE1=배신자
TTITLE2=기겁한 맹세
TTITLE3=충청도 아줌마
TTITLE4=마은은 서러워도
TTITLE5=애정이 꽃피던 시절
TTITLE6=정
TTITLE7=안개 낀 장충단 공원
TTITLE8=갈대의 순정
TTITLE9=어차피 떠난 사람
TTITLE10=기적소리만
TTITLE11=누가 울어
TTITLE12=안녕
TTITLE13=울고싶어
TTITLE14=조용한 이별
TTITLE15=우중의 여인
TTITLE16=삼일로
TTITLE17=사랑아 안녕
EXTD=
EXTT0=
EXTT1=
EXTT2=
EXTT3=
EXTT4=
EXTT5=
EXTT6=
EXTT7=
EXTT8=
EXTT9=
EXTT10=
EXTT11=
EXTT12=
EXTT13=
EXTT14=
EXTT15=
EXTT16=
EXTT17=
PLAYORDER=
